<svg xmlns="http://www.w3.org/2000/svg" xmlns:xlink="http://www.w3.org/1999/xlink" width="27" height="20" viewBox="0 0 27 20"><defs><path id="a" d="M558.52 5249.03h23.24c.93 0 2.12-.11 2.9.09.34.54.26.96.26 1.84v15.96c0 .61.02 1.33-.09 1.8-.11.07-.22.22-.35.27h-23.9c-.73 0-1.64.06-2.24-.09-.34-.55-.26-.96-.26-1.84v-15.97c0-.6-.03-1.32.09-1.79.1-.07.26-.18.35-.27zm2.06 1.25c.2.32.53.55.79.81l1.75 1.8 5.4 5.51 2.1 2.16c.27.26.56.76.92.89.38-.58 1.21-1.23 1.71-1.75l3.64-3.72 3.78-3.86c.5-.52 1.16-1.39 1.75-1.79v-.05h-21.84zm-1.27.54v15.03c0 .06.03.39.04.36.1-.25.44-.45.62-.63l1.44-1.48 3.73-3.81 1.18-1.21c.18-.18.32-.41.53-.54-.11-.26-.46-.48-.66-.68l-1.49-1.52-3.68-3.77c-.5-.51-1.14-1.36-1.71-1.75zm24.34 0l-5.53 5.7-1.97 1.97 5.92 6.1 1.62 1.62v-15.39h-.04zm-15.97 8.57l-8.1 8.34h23.85v-.04c-.49-.33-.87-.89-1.27-1.3l-2.72-2.78-2.8-2.88c-.43-.43-1-.83-1.33-1.34l-.04.04c-.5.34-.9.92-1.31 1.35-.73.75-1.52 1.44-2.24 2.2-.15 0-.35.01-.44-.05-.44-.14-.75-.68-1.05-.98l-2.55-2.56z"/></defs><desc>Generated with Avocode.</desc><use fill="#181818" xlink:href="#a" transform="translate(-558 -5249)"/></svg>