<svg xmlns="http://www.w3.org/2000/svg" xmlns:xlink="http://www.w3.org/1999/xlink" width="28" height="35" viewBox="0 0 28 35"><defs><path id="a" d="M566.2 5116c7.24-.15 11.67 3.84 13.77 8.87.93 2.23 1.47 6.2.56 9-1.2 3.72-3.1 6.62-5.15 9.44-.61.85-1.4 1.57-2.03 2.41l-.56.52a9.39 9.39 0 0 1-1.7 1.71l-.64.69c-.44.34-.81.72-1.26 1.05-.6.47-.97 1.05-1.86 1.27-.85.21-1.38-.36-1.77-.66-1.33-1-2.48-2.19-3.64-3.36a41.9 41.9 0 0 1-4.67-5.55c-.8-1.15-1.43-2.41-2.16-3.63-.54-.88-.81-1.89-1.22-2.88a13.96 13.96 0 0 1-.52-7.91c1.37-4.83 4.1-8.12 8.4-9.96.9-.38 1.9-.58 2.9-.83.38-.1 1.28 0 1.56-.18zm.14 1.75c-.25.15-.9.05-1.21.13-.86.21-1.71.34-2.47.66a12.57 12.57 0 0 0-6.93 6.68c-.93 2.18-1.34 5.86-.47 8.48 1.54 4.67 4.38 8.29 7.4 11.49.95 1.01 1.88 2.04 2.99 2.89.38.29.9 1.08 1.47 1.13.46-.49 1.06-.94 1.6-1.35l.39-.44c.62-.48 1.14-1.06 1.68-1.62.3-.27.58-.55.87-.83.8-1.06 1.81-1.97 2.6-3.06a35.46 35.46 0 0 0 4.37-7.77c.96-2.37.72-6.15-.17-8.35-1.92-4.69-5.58-8.02-12.12-8.04zm.43 5.2c3.67-.04 5.9 2.11 6.97 4.72a7.85 7.85 0 0 1 0 5.37 7.48 7.48 0 0 1-4.07 4.07c-.62.25-1.3.32-2.03.48-1.16.25-2.78-.31-3.47-.61-2.15-.95-3.43-2.49-4.15-4.9a6.48 6.48 0 0 1-.17-3.01l.38-1.44a7.55 7.55 0 0 1 4.29-4.24l1.34-.35c.26-.06.7.04.91-.09zm-.39 1.79c-.14.09-.34.04-.52.09-.36.1-.74.2-1.08.35a5.7 5.7 0 0 0-2.94 3.15c-.86 2.13.08 5.02 1.38 6.03.5.37.92.66 1.52.96.54.27 1.8.74 2.77.52 2.27-.51 3.75-1.42 4.58-3.36.16-.37.25-.79.35-1.18.22-.89.03-2.02-.22-2.71a5.57 5.57 0 0 0-4.07-3.76c-.5-.14-1.16-.09-1.77-.09z"/></defs><desc>Generated with Avocode.</desc><use fill="#181818" xlink:href="#a" transform="translate(-553 -5116)"/></svg>