<svg xmlns="http://www.w3.org/2000/svg" xmlns:xlink="http://www.w3.org/1999/xlink" width="30" height="30" viewBox="0 0 30 30"><defs><path id="a" d="M583 5179.07a14.9 14.9 0 0 1-14.96 14.93 15 15 0 1 1 0-30 15.2 15.2 0 0 1 14.96 15.07zm-2.06 0c0-7.12-5.81-13.08-12.9-13.08a13.1 13.1 0 0 0-12.98 13.08 13 13 0 0 0 12.98 12.94 13 13 0 0 0 12.9-12.94zm-5.48-6.41v13.09c0 .71-.56 1.12-1.23 1.12-.6 0-1.28-.41-1.28-1.12V5176h-.04l-3.7 7.57c-.27.53-.61.83-1.2.83-.6 0-.95-.3-1.21-.83l-3.71-7.57h-.04v9.75c0 .71-.68 1.12-1.27 1.12-.68 0-1.24-.41-1.24-1.12v-13.09c0-.75.41-1.54 1.65-1.54.93 0 1.31.42 1.72 1.24l4.1 8.44h.03l4.05-8.44c.41-.82.79-1.24 1.72-1.24 1.24 0 1.65.79 1.65 1.54z"/></defs><desc>Generated with Avocode.</desc><use fill="red" xlink:href="#a" transform="translate(-553 -5164)"/></svg>