<svg xmlns="http://www.w3.org/2000/svg" xmlns:xlink="http://www.w3.org/1999/xlink" width="52" height="52" viewBox="0 0 52 52"><defs><path id="a" d="M1405 3655a25 25 0 1 1 0 50 25 25 0 0 1 0-50z"/><path id="b" d="M1403.39 3688c.35 0 .71-.14.98-.41l7.63-7.59-7.63-7.6a1.4 1.4 0 0 0-1.96 0c-.54.53-.55 1.4-.01 1.94l5.69 5.66-5.69 5.66c-.54.54-.53 1.41.01 1.94.27.27.62.4.98.4z"/><mask id="d" width="2" height="2" x="-1" y="-1"><path fill="#fff" d="M1379.9 3654.9h50.2v50.2h-50.2z"/><use xlink:href="#a"/></mask><filter id="c" width="72.7" height="73.1" x="1369.9" y="3644.9" filterUnits="userSpaceOnUse"><feOffset dx=".5" dy=".9" in="SourceGraphic" result="FeOffset1058Out"/><feGaussianBlur in="FeOffset1058Out" result="FeGaussianBlur1059Out" stdDeviation="0.4 0.4"/></filter><clipPath id="e"><use fill="#fff" xlink:href="#a"/></clipPath><mask id="g" width="2.02" height="2.01" x="-1.01" y="-1.01"><path fill="#fff" d="M1401.93 3671.93h10.17v16.17h-10.17z"/><use xlink:href="#b"/></mask><filter id="f" width="32.67" height="39.07" x="1391.93" y="3661.93" filterUnits="userSpaceOnUse"><feOffset dx=".5" dy=".9" in="SourceGraphic" result="FeOffset1075Out"/><feGaussianBlur in="FeOffset1075Out" result="FeGaussianBlur1076Out" stdDeviation="0.4 0.4"/></filter></defs><desc>Generated with Avocode.</desc><g transform="translate(-1380 -3655)"><g filter="url(#c)"><use fill="none" stroke="#000" stroke-opacity=".36" stroke-width=".2" mask="url(&quot;#d&quot;)" xlink:href="#a"/><use fill-opacity=".36" xlink:href="#a"/></g><use fill="#fff" fill-opacity="0" stroke="#fff" stroke-miterlimit="50" stroke-width="6" clip-path="url(&quot;#e&quot;)" xlink:href="#a"/></g><g transform="translate(-1380 -3655)"><g filter="url(#f)"><use fill="none" stroke="#000" stroke-opacity=".36" stroke-width=".2" mask="url(&quot;#g&quot;)" xlink:href="#b"/><use fill-opacity=".36" xlink:href="#b"/></g><use fill="#fff" xlink:href="#b"/></g></svg>