<svg xmlns="http://www.w3.org/2000/svg" xmlns:xlink="http://www.w3.org/1999/xlink" width="58" height="58" viewBox="0 0 58 58"><defs><path id="a" d="M514 3655a25 25 0 1 1 0 50 25 25 0 0 1 0-50z"/><path id="b" d="M515.61 3688a1.4 1.4 0 0 1-.98-.41L507 3680l7.63-7.6a1.4 1.4 0 0 1 1.96 0c.54.53.55 1.4 0 1.94l-5.68 5.66 5.69 5.66a1.38 1.38 0 1 1-.98 2.34z"/><mask id="d" width="2.01" height="2.01" x="-1.01" y="-1.01"><path fill="#fff" d="M488.7 3654.7h50.6v50.6h-50.6z"/><use xlink:href="#a"/></mask><filter id="c" width="81" height="81.7" x="478.7" y="3644.7" filterUnits="userSpaceOnUse"><feOffset dx="1" dy="1.7" in="SourceGraphic" result="FeOffset1022Out"/><feGaussianBlur in="FeOffset1022Out" result="FeGaussianBlur1023Out" stdDeviation="1.8800000000000001 1.8800000000000001"/></filter><clipPath id="e"><use fill="#fff" xlink:href="#a"/></clipPath><mask id="g" width="2.06" height="2.04" x="-1.03" y="-1.02"><path fill="#fff" d="M506.7 3671.73h10.6v16.57h-10.6z"/><use xlink:href="#b"/></mask><filter id="f" width="41" height="47.67" x="496.7" y="3661.73" filterUnits="userSpaceOnUse"><feOffset dx="1" dy="1.7" in="SourceGraphic" result="FeOffset1039Out"/><feGaussianBlur in="FeOffset1039Out" result="FeGaussianBlur1040Out" stdDeviation="1.8800000000000001 1.8800000000000001"/></filter></defs><desc>Generated with Avocode.</desc><g transform="translate(-486 -3653)"><g filter="url(#c)"><use fill="none" stroke="#000" stroke-opacity=".36" stroke-width=".6" mask="url(&quot;#d&quot;)" xlink:href="#a"/><use fill-opacity=".36" xlink:href="#a"/></g><use fill="#fff" fill-opacity="0" stroke="#fff" stroke-miterlimit="50" stroke-width="6" clip-path="url(&quot;#e&quot;)" xlink:href="#a"/></g><g transform="translate(-486 -3653)"><g filter="url(#f)"><use fill="none" stroke="#000" stroke-opacity=".36" stroke-width=".6" mask="url(&quot;#g&quot;)" xlink:href="#b"/><use fill-opacity=".36" xlink:href="#b"/></g><use fill="#fff" xlink:href="#b"/></g></svg>