<svg xmlns="http://www.w3.org/2000/svg" xmlns:xlink="http://www.w3.org/1999/xlink" width="28" height="28" viewBox="0 0 28 28"><defs><path id="a" d="M561.24 5200c2.25 0 2.32 1.2 3.15 2.56.8 1.29 1.49 2.66 2.29 3.98.35.57 1.39 1.8 1.14 2.83-.27 1.13-1.13 1.67-1.83 2.38-.16.16-.25.38-.4.54-.09 1.06.54 1.31 1 1.92a21.56 21.56 0 0 0 3.88 3.93c.54.41 1 1.21 1.79 1.33.55.09.9-.44 1.14-.68.63-.64 1.78-2.14 3.3-1.51.8.33 1.6.92 2.33 1.37 1.18.72 2.4 1.34 3.57 2.05.91.57 1.97.85 2.33 1.97a2.7 2.7 0 0 1-.1 1.51c-.2.5-.68.83-1.04 1.19l-1.79 1.82a5.66 5.66 0 0 1-4.3.64 20.86 20.86 0 0 1-6.36-2.83c-5.29-3.46-9.67-7.91-12.67-13.67-.9-1.72-2.38-5.16-1.28-7.67.37-.84 1.17-1.45 1.79-2.06.4-.4.77-.91 1.23-1.24.24-.16.58-.19.83-.36zm.31.87l-.45.13c-.06.09-.1.08-.14.19.21.23.29.54.46.82.49.8.91 1.65 1.42 2.47.72 1.19 1.36 2.45 2.1 3.65.41.68.88 1.38 1.24 2.11h.09c.27-.39.9-.83.6-1.65-.25-.62-.76-1.26-1.1-1.83-.81-1.31-1.5-2.68-2.3-3.97-.48-.8-.66-1.88-1.91-1.92zm-1.32.91c-.64.96-1.75 1.44-2.15 2.65-.23.7-.18 1.87 0 2.56.44 1.7.85 3.09 1.65 4.39.54.88.93 1.78 1.5 2.61a38.78 38.78 0 0 0 11.44 10.83c1.57.96 3.33 1.64 5.35 2.15.83.2 2.13.14 2.8-.14.58-.25.95-.72 1.37-1.14.28-.29.82-.61.96-1.01-.8-.35-1.56-.88-2.3-1.32-.5-.32-1.03-.51-1.55-.83a147.6 147.6 0 0 0-3.1-1.83c-.55-.3-1.08-.61-1.6-.91-.13-.07-.55-.32-.6-.27-.51.34-1.15 1.17-2.24.77-.8-.28-1.27-1-1.88-1.46a20.52 20.52 0 0 1-3.66-3.66c-.5-.65-1.3-1.16-1.55-2.05-.2-.68.13-1.37.4-1.74.15-.19.37-.25.47-.5-.54-.56-.87-1.56-1.29-2.24-.91-1.5-1.78-3.08-2.7-4.57-.3-.51-.57-1.03-.86-1.51-.16-.26-.22-.59-.46-.78zm15.6 16.27c-.19.13-.46.11-.64.23-.2.13-.3.37-.5.51v.04h.04c.43.39 1.05.56 1.56.87 1.35.83 2.78 1.54 4.16 2.38.72.44 1.5.82 2.24 1.28.36.22.75.56 1.19.68.17-.57.35-1-.05-1.55-.33-.46-1.48-.87-2.01-1.19-1.27-.77-2.6-1.46-3.89-2.24-.61-.37-1.2-.96-2.1-1.01z"/></defs><desc>Generated with Avocode.</desc><use fill="#181818" xlink:href="#a" transform="translate(-557 -5200)"/></svg>