<svg xmlns="http://www.w3.org/2000/svg" xmlns:xlink="http://www.w3.org/1999/xlink" width="50" height="50" viewBox="0 0 50 50"><defs><path id="a" d="M1035 4705a25 25 0 1 1 0 50 25 25 0 0 1 0-50z"/><path id="b" d="M1033.39 4738c.35 0 .71-.14.98-.4l7.63-7.6-7.63-7.6a1.4 1.4 0 0 0-1.96 0c-.54.53-.55 1.4-.01 1.94l5.69 5.66-5.69 5.66c-.54.54-.53 1.41.01 1.94.27.27.62.4.98.4z"/></defs><desc>Generated with Avocode.</desc><use fill="#fff" xlink:href="#a" transform="translate(-1010 -4705)"/><use xlink:href="#b" transform="translate(-1010 -4705)"/></svg>