<svg xmlns="http://www.w3.org/2000/svg" width="12" height="10" viewBox="0 0 12 10">
  <defs>
    <style>
      .cls-1 {
        fill: #fff;
        fill-rule: evenodd;
      }
    </style>
  </defs>
  <path id="Чербокс_вкл._" data-name="Чербокс вкл. " class="cls-1" d="M0.146-4.986H11.854A4.161,4.161,0,0,1,16.014-.825v11.65a4.161,4.161,0,0,1-4.161,4.161H0.146a4.161,4.161,0,0,1-4.161-4.161V-0.825A4.161,4.161,0,0,1,.146-4.986ZM0-4H12a3,3,0,0,1,3,3V11a3,3,0,0,1-3,3H0a3,3,0,0,1-3-3V-1A3,3,0,0,1,0-4ZM12.369,1.956l-5.93,5.93,0,0L4.675,9.653l0,0,0,0L2.907,7.888l0,0-3.07-3.07L1.6,3.051l3.07,3.07L10.6,0.19Z"/>
</svg>
